<?xml version="1.0" encoding="iso-8859-1"?>
<!-- Generator: Adobe Illustrator 18.0.0, SVG Export Plug-In . SVG Version: 6.00 Build 0)  -->
<!DOCTYPE svg PUBLIC "-//W3C//DTD SVG 1.1//EN" "http://www.w3.org/Graphics/SVG/1.1/DTD/svg11.dtd">
<svg xmlns="http://www.w3.org/2000/svg" xmlns:xlink="http://www.w3.org/1999/xlink" version="1.1" id="Capa_1" x="0px" y="0px" viewBox="0 0 296.183 296.183" style="enable-background:new 0 0 296.183 296.183;" xml:space="preserve" width="512px" height="512px">
<g>
	<path d="M212.616,123.331c-3.73,0-6.261,0.356-7.583,0.72v23.964c1.563,0.362,3.489,0.48,6.142,0.48   c9.751,0,15.771-4.938,15.771-13.246C226.945,127.786,221.769,123.331,212.616,123.331z" fill="#82e885"/>
	<path d="M148.09,0.001C66.432,0.001,0,66.433,0,148.092c0,81.658,66.432,148.09,148.09,148.09   c81.66,0,148.093-66.432,148.093-148.09C296.183,66.433,229.75,0.001,148.09,0.001z M101.711,191.243H61.75   c-2.373,0-4.295-1.923-4.295-4.293v-72.576c0-2.367,1.922-4.289,4.295-4.289h38.272c4.157,0,7.526,3.368,7.526,7.524   c0,4.157-3.369,7.525-7.526,7.525H75.878v16.859h22.458c4.092,0,7.407,3.314,7.407,7.407c0,4.157-3.367,7.524-7.524,7.524H75.878   v19.267h25.833c4.155,0,7.523,3.369,7.523,7.524C109.233,187.876,105.866,191.243,101.711,191.243z M141.659,192.449   c-5.746,0-11.448-0.927-16.041-2.231c-3.976-1.133-6.344-5.205-5.357-9.221l0.121-0.499c0.481-1.952,1.75-3.623,3.501-4.608   c1.755-0.992,3.84-1.213,5.76-0.612c3.95,1.239,8.48,2.117,13.1,2.117c8.429,0,12.885-3.491,12.885-8.79   c0-5.055-3.854-7.947-13.606-11.438c-13.486-4.697-22.274-12.163-22.274-23.963c0-13.85,11.558-24.444,30.702-24.444   c5.369,0,9.903,0.661,13.706,1.649c1.893,0.488,3.507,1.716,4.482,3.4c0.975,1.691,1.236,3.701,0.715,5.584l-0.13,0.481   c-1.09,3.935-5.139,6.265-9.092,5.22c-2.803-0.738-6.165-1.285-10.045-1.285c-7.945,0-11.798,3.613-11.798,7.83   c0,5.177,4.578,7.462,15.049,11.438c14.329,5.3,21.077,12.766,21.077,24.204C174.413,180.888,163.935,192.449,141.659,192.449z    M237.667,154.034c-6.266,5.902-15.535,8.551-26.375,8.551c-2.406,0-4.573-0.119-6.259-0.365v19.935c0,5.02-4.07,9.089-9.097,9.089   c-5.018,0-9.086-4.069-9.086-9.089v-67.285c0-2.157,1.601-3.979,3.744-4.256c5.279-0.677,12.139-1.132,21.061-1.132   c11.318,0,19.39,2.166,24.807,6.502c5.177,4.096,8.667,10.838,8.667,18.785C245.129,142.714,242.481,149.46,237.667,154.034z" fill="#82e885"/>
</g>
<g>
</g>
<g>
</g>
<g>
</g>
<g>
</g>
<g>
</g>
<g>
</g>
<g>
</g>
<g>
</g>
<g>
</g>
<g>
</g>
<g>
</g>
<g>
</g>
<g>
</g>
<g>
</g>
<g>
</g>
</svg>
